<?xml version="1.0" encoding="utf-8"?>
<!-- Generator: Adobe Illustrator 25.2.3, SVG Export Plug-In . SVG Version: 6.00 Build 0)  -->
<svg version="1.1" id="Layer_1" xmlns="http://www.w3.org/2000/svg" xmlns:xlink="http://www.w3.org/1999/xlink" x="0px" y="0px"
	 viewBox="0 0 1080 1080" style="enable-background:new 0 0 1080 1080;" xml:space="preserve">
<style type="text/css">
	.st0{fill:#FFFFFF;}
	.st1{fill:#14322C;}
	.st2{fill:url(#SVGID_1_);}
	.st3{fill:#3A75BA;}
	.st4{fill:#89ACD6;}
	.st5{fill:url(#SVGID_2_);}
	.st6{fill:url(#SVGID_3_);}
	.st7{fill:url(#SVGID_4_);}
	.st8{fill:url(#SVGID_5_);}
	.st9{fill:url(#SVGID_6_);}
	.st10{fill:url(#SVGID_7_);}
	.st11{fill:url(#SVGID_8_);}
	.st12{fill:url(#SVGID_9_);}
	.st13{fill:url(#SVGID_10_);}
	.st14{fill:url(#SVGID_11_);}
	.st15{fill:url(#SVGID_12_);}
	.st16{fill:url(#SVGID_13_);}
	.st17{fill:url(#SVGID_14_);}
	.st18{fill:url(#SVGID_15_);}
	.st19{fill:url(#SVGID_16_);}
	.st20{fill:url(#SVGID_17_);}
	.st21{fill:url(#SVGID_18_);}
	.st22{fill:url(#SVGID_19_);}
	.st23{fill:url(#SVGID_20_);}
	.st24{fill:url(#SVGID_21_);}
	.st25{fill:url(#SVGID_22_);}
	.st26{fill:url(#SVGID_23_);}
	.st27{fill:url(#SVGID_24_);}
	.st28{fill:url(#SVGID_25_);}
	.st29{fill:url(#SVGID_26_);}
	.st30{fill:url(#SVGID_27_);}
	.st31{fill:url(#SVGID_28_);}
</style>
<path class="st0" d="M896.85,1080H183.15C82,1080,0,998,0,896.85V183.15C0,82,82,0,183.15,0h713.71C998,0,1080,82,1080,183.15
	v713.71C1080,998,998,1080,896.85,1080z"/>
<g>
	<g>
		<g>
			<g>
				<g>
					<g>
						<g>
							<g>
								<g>
									<g>
										<g>
											<path class="st1" d="M476.43,582h-87.09c-7.6,0-13.75,6.16-13.76,13.76v141.09c0,7.6,6.16,13.75,13.76,13.76h87.09
												c7.6,0,13.75-6.16,13.76-13.76V595.75C490.19,588.15,484.03,582,476.43,582z M481.72,736.84c0,1.47-0.59,2.77-1.55,3.74
												c-0.97,0.96-2.27,1.55-3.74,1.55h-87.09c-1.47,0-2.77-0.59-3.74-1.55c-0.96-0.97-1.55-2.27-1.55-3.74V595.75
												c0-1.47,0.59-2.77,1.55-3.74c0.97-0.96,2.27-1.55,3.74-1.55h87.09c1.47,0,2.77,0.59,3.74,1.55
												c0.96,0.97,1.55,2.27,1.55,3.74V736.84z"/>
											<path class="st1" d="M457.03,586.83h-48.28v-16.47c0-1.86,1.5-3.36,3.36-3.36h41.56c1.86,0,3.36,1.5,3.36,3.36V586.83z"
												/>
											<g>
												<linearGradient id="SVGID_1_" gradientUnits="userSpaceOnUse" x1="433.2634" y1="601.9854" x2="432.533" y2="726.5327">
													<stop  offset="0" style="stop-color:#A7CE38"/>
													<stop  offset="1" style="stop-color:#04793E"/>
												</linearGradient>
												<path class="st2" d="M473.78,598.4c-0.53-0.53-1.26-0.83-2-0.83h-77.78c-0.75,0-1.48,0.3-2,0.83
													c-0.53,0.53-0.83,1.26-0.83,2v131.78c0,0.75,0.3,1.48,0.83,2c0.53,0.53,1.26,0.83,2,0.83h77.78c0.75,0,1.48-0.3,2-0.83
													c0.53-0.53,0.83-1.26,0.83-2V600.41C474.61,599.66,474.31,598.93,473.78,598.4z M417.67,720.59l12.48-48.11h-23.96
													l36.22-54.32l6.33-9.5l-10.25,45.54h25.06L417.67,720.59z"/>
											</g>
										</g>
										<g>
											<g>
												<polygon class="st1" points="868.62,609.27 806.47,609.27 806.47,740.92 780.59,740.92 780.59,609.27 579.08,609.27 
													579.08,740.92 498.26,740.92 498.26,715.03 553.2,715.03 553.2,576.04 432.88,465.74 312.58,576.04 312.58,715.03 
													367.49,715.03 367.49,740.92 286.7,740.92 286.7,599.85 248.33,599.85 432.88,430.64 599.47,583.38 839.63,583.38 
																									"/>
											</g>
										</g>
									</g>
								</g>
							</g>
						</g>
						<g>
							<polygon class="st3" points="519.73,479.18 561.66,516.57 568.42,516.57 527.11,479.18 							"/>
							<polygon class="st3" points="549.14,469.47 506.27,430.66 490.52,430.66 533.39,469.47 							"/>
							<polygon class="st3" points="465.35,430.66 508.85,469.47 516.39,469.47 473.52,430.66 							"/>
							<polygon class="st3" points="579.77,526.28 622.64,565.09 638.38,565.09 595.51,526.28 							"/>
							<polygon class="st3" points="568.83,469.47 525.33,430.66 523.27,430.66 566.14,469.47 							"/>
							<polygon class="st3" points="489.9,430.66 474.15,430.66 517.02,469.47 532.77,469.47 							"/>
							<polygon class="st3" points="572.54,526.28 616.04,565.09 622.01,565.09 579.14,526.28 							"/>
							<polygon class="st3" points="543.49,479.18 527.74,479.18 569.05,516.57 584.79,516.57 							"/>
							<polygon class="st3" points="621.63,516.57 579.71,479.18 576.86,479.18 618.17,516.57 							"/>
							<polygon class="st3" points="617.54,516.57 576.23,479.18 560.49,479.18 601.79,516.57 							"/>
							<polygon class="st3" points="601.17,516.57 559.86,479.18 544.12,479.18 585.42,516.57 							"/>
							<polygon class="st3" points="565.51,469.47 522.64,430.66 506.9,430.66 549.77,469.47 							"/>
							<polygon class="st3" points="637.37,469.47 593.87,430.66 592.15,430.66 635.02,469.47 							"/>
							<polygon class="st3" points="702.18,469.47 659.31,430.66 645.63,430.66 688.5,469.47 							"/>
							<polygon class="st3" points="659.38,469.47 616.51,430.66 608.45,430.66 651.95,469.47 							"/>
							<polygon class="st3" points="634.44,469.47 591.57,430.66 577.89,430.66 620.76,469.47 							"/>
							<polygon class="st3" points="687.91,469.47 645.04,430.66 631.36,430.66 674.23,469.47 							"/>
							<polygon class="st3" points="711.93,469.47 668.43,430.66 659.89,430.66 702.76,469.47 							"/>
							<polygon class="st3" points="631.48,479.18 672.79,516.57 686.46,516.57 645.16,479.18 							"/>
							<polygon class="st3" points="605.9,469.47 563.03,430.66 549.36,430.66 592.23,469.47 							"/>
							<polygon class="st3" points="645.75,479.18 687.05,516.57 690.17,516.57 648.25,479.18 							"/>
							<polygon class="st3" points="620.17,469.47 577.3,430.66 563.62,430.66 606.49,469.47 							"/>
							<polygon class="st3" points="591.64,469.47 548.77,430.66 539.91,430.66 583.41,469.47 							"/>
							<polygon class="st3" points="740.53,516.57 754.2,516.57 712.9,479.18 699.22,479.18 							"/>
							<polygon class="st3" points="673.65,469.47 630.78,430.66 617.1,430.66 659.97,469.47 							"/>
							<polygon class="st3" points="697.77,526.28 740.64,565.09 744.56,565.09 701.05,526.28 							"/>
							<polygon class="st3" points="715.64,526.28 759.14,565.09 765,565.09 722.13,526.28 							"/>
							<polygon class="st3" points="669.24,526.28 712.11,565.09 725.79,565.09 682.92,526.28 							"/>
							<polygon class="st3" points="683.51,526.28 726.38,565.09 740.05,565.09 697.18,526.28 							"/>
							<polygon class="st3" points="602.95,479.18 644.26,516.57 657.93,516.57 616.63,479.18 							"/>
							<polygon class="st3" points="594.3,479.18 636.21,516.57 643.67,516.57 602.36,479.18 							"/>
							<polygon class="st3" points="684.95,479.18 726.26,516.57 739.94,516.57 698.63,479.18 							"/>
							<polygon class="st3" points="764.74,516.57 722.81,479.18 713.48,479.18 754.79,516.57 							"/>
							<polygon class="st3" points="775.62,526.28 765.51,526.28 808.38,565.09 819.12,565.09 							"/>
							<polygon class="st3" points="722.72,526.28 765.59,565.09 779.26,565.09 736.39,526.28 							"/>
							<polygon class="st3" points="662.84,479.18 704.76,516.57 711.41,516.57 670.1,479.18 							"/>
							<polygon class="st3" points="670.69,479.18 712,516.57 725.67,516.57 684.37,479.18 							"/>
							<polygon class="st3" points="736.98,526.28 779.85,565.09 793.53,565.09 750.66,526.28 							"/>
							<polygon class="st3" points="751.25,526.28 794.12,565.09 807.79,565.09 764.92,526.28 							"/>
							<polygon class="st3" points="628.89,526.28 671.76,565.09 676.02,565.09 632.51,526.28 							"/>
							<polygon class="st3" points="654.98,526.28 697.84,565.09 711.52,565.09 668.65,526.28 							"/>
							<polygon class="st3" points="647.09,526.28 690.6,565.09 697.26,565.09 654.39,526.28 							"/>
							<polygon class="st3" points="617.21,479.18 658.52,516.57 672.2,516.57 630.89,479.18 							"/>
							<polygon class="st3" points="596.14,526.28 639.01,565.09 654.75,565.09 611.89,526.28 							"/>
							<polygon class="st3" points="612.52,526.28 655.38,565.09 671.13,565.09 628.26,526.28 							"/>
							<polygon class="st4" points="473.52,430.66 516.39,469.47 517.02,469.47 474.15,430.66 							"/>
							<polygon class="st4" points="527.11,479.18 568.42,516.57 569.05,516.57 527.74,479.18 							"/>
							<polygon class="st4" points="579.14,526.28 622.01,565.09 622.64,565.09 579.77,526.28 							"/>
							<polygon class="st4" points="533.39,469.47 490.52,430.66 489.9,430.66 532.77,469.47 							"/>
							<polygon class="st4" points="585.42,516.57 544.12,479.18 543.49,479.18 584.79,516.57 							"/>
							<polygon class="st4" points="595.51,526.28 638.38,565.09 639.01,565.09 596.14,526.28 							"/>
							<polygon class="st4" points="549.77,469.47 506.9,430.66 506.27,430.66 549.14,469.47 							"/>
							<polygon class="st4" points="601.79,516.57 560.49,479.18 559.86,479.18 601.17,516.57 							"/>
							<polygon class="st4" points="611.89,526.28 654.75,565.09 655.38,565.09 612.52,526.28 							"/>
							<polygon class="st4" points="566.14,469.47 523.27,430.66 522.64,430.66 565.51,469.47 							"/>
							<polygon class="st4" points="618.17,516.57 576.86,479.18 576.23,479.18 617.54,516.57 							"/>
							<polygon class="st4" points="628.26,526.28 671.13,565.09 671.76,565.09 628.89,526.28 							"/>
							<polygon class="st4" points="592.23,469.47 549.36,430.66 548.77,430.66 591.64,469.47 							"/>
							<polygon class="st4" points="602.36,479.18 643.67,516.57 644.26,516.57 602.95,479.18 							"/>
							<polygon class="st4" points="654.39,526.28 697.26,565.09 697.84,565.09 654.98,526.28 							"/>
							<polygon class="st4" points="606.49,469.47 563.62,430.66 563.03,430.66 605.9,469.47 							"/>
							<polygon class="st4" points="616.63,479.18 657.93,516.57 658.52,516.57 617.21,479.18 							"/>
							<polygon class="st4" points="668.65,526.28 711.52,565.09 712.11,565.09 669.24,526.28 							"/>
							<polygon class="st4" points="620.76,469.47 577.89,430.66 577.3,430.66 620.17,469.47 							"/>
							<polygon class="st4" points="630.89,479.18 672.2,516.57 672.79,516.57 631.48,479.18 							"/>
							<polygon class="st4" points="682.92,526.28 725.79,565.09 726.38,565.09 683.51,526.28 							"/>
							<polygon class="st4" points="635.02,469.47 592.15,430.66 591.57,430.66 634.44,469.47 							"/>
							<polygon class="st4" points="645.16,479.18 686.46,516.57 687.05,516.57 645.75,479.18 							"/>
							<polygon class="st4" points="697.18,526.28 740.05,565.09 740.64,565.09 697.77,526.28 							"/>
							<polygon class="st4" points="659.97,469.47 617.1,430.66 616.51,430.66 659.38,469.47 							"/>
							<polygon class="st4" points="670.1,479.18 711.41,516.57 712,516.57 670.69,479.18 							"/>
							<polygon class="st4" points="722.13,526.28 765,565.09 765.59,565.09 722.72,526.28 							"/>
							<polygon class="st4" points="674.23,469.47 631.36,430.66 630.78,430.66 673.65,469.47 							"/>
							<polygon class="st4" points="684.37,479.18 725.67,516.57 726.26,516.57 684.95,479.18 							"/>
							<polygon class="st4" points="736.39,526.28 779.26,565.09 779.85,565.09 736.98,526.28 							"/>
							<polygon class="st4" points="688.5,469.47 645.63,430.66 645.04,430.66 687.91,469.47 							"/>
							<polygon class="st4" points="698.63,479.18 739.94,516.57 740.53,516.57 699.22,479.18 							"/>
							<polygon class="st4" points="750.66,526.28 793.53,565.09 794.12,565.09 751.25,526.28 							"/>
							<polygon class="st4" points="702.76,469.47 659.89,430.66 659.31,430.66 702.18,469.47 							"/>
							<polygon class="st4" points="754.79,516.57 713.48,479.18 712.9,479.18 754.2,516.57 							"/>
							<polygon class="st4" points="764.92,526.28 807.79,565.09 808.38,565.09 765.51,526.28 							"/>
						</g>
					</g>
				</g>
			</g>
		</g>
		<g>
			<linearGradient id="SVGID_2_" gradientUnits="userSpaceOnUse" x1="376.4835" y1="341.8318" x2="287.3646" y2="554.4023">
				<stop  offset="0" style="stop-color:#F9EC31"/>
				<stop  offset="1" style="stop-color:#F05A28"/>
			</linearGradient>
			<path class="st5" d="M342.99,378.55c-45.55,0-82.47,36.92-82.47,82.47c0,28.96,14.91,54.42,37.5,69.11L415.76,422.2
				C401.88,396.22,374.51,378.55,342.99,378.55z"/>
			<linearGradient id="SVGID_3_" gradientUnits="userSpaceOnUse" x1="350.5949" y1="330.9781" x2="261.476" y2="543.5486">
				<stop  offset="0" style="stop-color:#F9EC31"/>
				<stop  offset="1" style="stop-color:#F05A28"/>
			</linearGradient>
			<rect x="334.91" y="329.41" class="st6" width="16.18" height="39.4"/>
			<linearGradient id="SVGID_4_" gradientUnits="userSpaceOnUse" x1="295.3152" y1="307.8025" x2="206.1963" y2="520.3729">
				<stop  offset="0" style="stop-color:#F9EC31"/>
				<stop  offset="1" style="stop-color:#F05A28"/>
			</linearGradient>
			<rect x="211.38" y="452.94" class="st7" width="39.4" height="16.18"/>
			<linearGradient id="SVGID_5_" gradientUnits="userSpaceOnUse" x1="429.5922" y1="364.0973" x2="340.4733" y2="576.6677">
				<stop  offset="0" style="stop-color:#F9EC31"/>
				<stop  offset="1" style="stop-color:#F05A28"/>
			</linearGradient>
			<polygon class="st8" points="441.78,373.68 430.34,362.24 402.49,390.1 413.92,401.54 			"/>
			<linearGradient id="SVGID_6_" gradientUnits="userSpaceOnUse" x1="351.4137" y1="331.3214" x2="262.2948" y2="543.8919">
				<stop  offset="0" style="stop-color:#F9EC31"/>
				<stop  offset="1" style="stop-color:#F05A28"/>
			</linearGradient>
			<polygon class="st9" points="244.21,548.37 255.65,559.81 283.51,531.95 272.07,520.51 			"/>
			<linearGradient id="SVGID_7_" gradientUnits="userSpaceOnUse" x1="294.9767" y1="307.6605" x2="205.8578" y2="520.231">
				<stop  offset="0" style="stop-color:#F9EC31"/>
				<stop  offset="1" style="stop-color:#F05A28"/>
			</linearGradient>
			<polygon class="st10" points="283.51,390.1 255.65,362.24 244.21,373.68 272.07,401.54 			"/>
		</g>
	</g>
</g>
</svg>
