<?xml version="1.0" encoding="utf-8"?>
<!-- Generator: Adobe Illustrator 25.2.3, SVG Export Plug-In . SVG Version: 6.00 Build 0)  -->
<svg version="1.1" id="Layer_1" xmlns="http://www.w3.org/2000/svg" xmlns:xlink="http://www.w3.org/1999/xlink" x="0px" y="0px"
	 viewBox="0 0 1080 1080" style="enable-background:new 0 0 1080 1080;" xml:space="preserve">
<style type="text/css">
	.st0{fill:#FFFFFF;}
	.st1{fill:#14322C;}
	.st2{fill:url(#SVGID_1_);}
	.st3{fill:#3A75BA;}
	.st4{fill:#89ACD6;}
	.st5{fill:url(#SVGID_2_);}
	.st6{fill:url(#SVGID_3_);}
	.st7{fill:url(#SVGID_4_);}
	.st8{fill:url(#SVGID_5_);}
	.st9{fill:url(#SVGID_6_);}
	.st10{fill:url(#SVGID_7_);}
	.st11{fill:url(#SVGID_8_);}
	.st12{fill:url(#SVGID_9_);}
	.st13{fill:url(#SVGID_10_);}
	.st14{fill:url(#SVGID_11_);}
	.st15{fill:url(#SVGID_12_);}
	.st16{fill:url(#SVGID_13_);}
	.st17{fill:url(#SVGID_14_);}
	.st18{fill:url(#SVGID_15_);}
	.st19{fill:url(#SVGID_16_);}
	.st20{fill:url(#SVGID_17_);}
	.st21{fill:url(#SVGID_18_);}
	.st22{fill:url(#SVGID_19_);}
	.st23{fill:url(#SVGID_20_);}
	.st24{fill:url(#SVGID_21_);}
	.st25{fill:url(#SVGID_22_);}
	.st26{fill:url(#SVGID_23_);}
	.st27{fill:url(#SVGID_24_);}
	.st28{fill:url(#SVGID_25_);}
	.st29{fill:url(#SVGID_26_);}
	.st30{fill:url(#SVGID_27_);}
	.st31{fill:url(#SVGID_28_);}
</style>
<path class="st0" d="M896.85,1080H183.15C82,1080,0,998,0,896.85V183.15C0,82,82,0,183.15,0h713.71C998,0,1080,82,1080,183.15
	v713.71C1080,998,998,1080,896.85,1080z"/>
<g>
	<g>
		<g>
			<g>
				<g>
					<g>
						<g>
							<g>
								<g>
									<g>
										<g>
											<path d="M476.43,582h-87.09c-7.6,0-13.75,6.16-13.76,13.76v141.09c0,7.6,6.16,13.75,13.76,13.76h87.09
												c7.6,0,13.75-6.16,13.76-13.76V595.75C490.19,588.15,484.03,582,476.43,582z M481.72,736.84c0,1.47-0.59,2.77-1.55,3.74
												c-0.97,0.96-2.27,1.55-3.74,1.55h-87.09c-1.47,0-2.77-0.59-3.74-1.55c-0.96-0.97-1.55-2.27-1.55-3.74V595.75
												c0-1.47,0.59-2.77,1.55-3.74c0.97-0.96,2.27-1.55,3.74-1.55h87.09c1.47,0,2.77,0.59,3.74,1.55
												c0.96,0.97,1.55,2.27,1.55,3.74V736.84z"/>
											<path d="M457.03,586.83h-48.28v-16.47c0-1.86,1.5-3.36,3.36-3.36h41.56c1.86,0,3.36,1.5,3.36,3.36V586.83z"/>
											<g>
												<path d="M473.78,598.4c-0.53-0.53-1.26-0.83-2-0.83h-77.78c-0.75,0-1.48,0.3-2,0.83c-0.53,0.53-0.83,1.26-0.83,2v131.78
													c0,0.75,0.3,1.48,0.83,2c0.53,0.53,1.26,0.83,2,0.83h77.78c0.75,0,1.48-0.3,2-0.83c0.53-0.53,0.83-1.26,0.83-2V600.41
													C474.61,599.66,474.31,598.93,473.78,598.4z M417.67,720.59l12.48-48.11h-23.96l36.22-54.32l6.33-9.5l-10.25,45.54
													h25.06L417.67,720.59z"/>
											</g>
										</g>
										<g>
											<g>
												<polygon points="868.62,609.27 806.47,609.27 806.47,740.92 780.59,740.92 780.59,609.27 579.08,609.27 579.08,740.92 
													498.26,740.92 498.26,715.03 553.2,715.03 553.2,576.04 432.88,465.74 312.58,576.04 312.58,715.03 367.49,715.03 
													367.49,740.92 286.7,740.92 286.7,599.85 248.33,599.85 432.88,430.64 599.47,583.38 839.63,583.38 												"/>
											</g>
										</g>
									</g>
								</g>
							</g>
						</g>
						<polygon points="519.73,479.18 561.66,516.57 568.42,516.57 527.11,479.18 						"/>
						<polygon points="549.14,469.47 506.27,430.66 490.52,430.66 533.39,469.47 						"/>
						<polygon points="465.35,430.66 508.85,469.47 516.39,469.47 473.52,430.66 						"/>
						<polygon points="579.77,526.28 622.64,565.09 638.38,565.09 595.51,526.28 						"/>
						<polygon points="568.83,469.47 525.33,430.66 523.27,430.66 566.14,469.47 						"/>
						<polygon points="489.9,430.66 474.15,430.66 517.02,469.47 532.77,469.47 						"/>
						<polygon points="572.54,526.28 616.04,565.09 622.01,565.09 579.14,526.28 						"/>
						<polygon points="543.49,479.18 527.74,479.18 569.05,516.57 584.79,516.57 						"/>
						<polygon points="621.63,516.57 579.71,479.18 576.86,479.18 618.17,516.57 						"/>
						<polygon points="617.54,516.57 576.23,479.18 560.49,479.18 601.79,516.57 						"/>
						<polygon points="601.17,516.57 559.86,479.18 544.12,479.18 585.42,516.57 						"/>
						<polygon points="565.51,469.47 522.64,430.66 506.9,430.66 549.77,469.47 						"/>
						<polygon points="637.37,469.47 593.87,430.66 592.15,430.66 635.02,469.47 						"/>
						<polygon points="702.18,469.47 659.31,430.66 645.63,430.66 688.5,469.47 						"/>
						<polygon points="659.38,469.47 616.51,430.66 608.45,430.66 651.95,469.47 						"/>
						<polygon points="634.44,469.47 591.57,430.66 577.89,430.66 620.76,469.47 						"/>
						<polygon points="687.91,469.47 645.04,430.66 631.36,430.66 674.23,469.47 						"/>
						<polygon points="711.93,469.47 668.43,430.66 659.89,430.66 702.76,469.47 						"/>
						<polygon points="631.48,479.18 672.79,516.57 686.46,516.57 645.16,479.18 						"/>
						<polygon points="605.9,469.47 563.03,430.66 549.36,430.66 592.23,469.47 						"/>
						<polygon points="645.75,479.18 687.05,516.57 690.17,516.57 648.25,479.18 						"/>
						<polygon points="620.17,469.47 577.3,430.66 563.62,430.66 606.49,469.47 						"/>
						<polygon points="591.64,469.47 548.77,430.66 539.91,430.66 583.41,469.47 						"/>
						<polygon points="740.53,516.57 754.2,516.57 712.9,479.18 699.22,479.18 						"/>
						<polygon points="673.65,469.47 630.78,430.66 617.1,430.66 659.97,469.47 						"/>
						<polygon points="697.77,526.28 740.64,565.09 744.56,565.09 701.05,526.28 						"/>
						<polygon points="715.64,526.28 759.14,565.09 765,565.09 722.13,526.28 						"/>
						<polygon points="669.24,526.28 712.11,565.09 725.79,565.09 682.92,526.28 						"/>
						<polygon points="683.51,526.28 726.38,565.09 740.05,565.09 697.18,526.28 						"/>
						<polygon points="602.95,479.18 644.26,516.57 657.93,516.57 616.63,479.18 						"/>
						<polygon points="594.3,479.18 636.21,516.57 643.67,516.57 602.36,479.18 						"/>
						<polygon points="684.95,479.18 726.26,516.57 739.94,516.57 698.63,479.18 						"/>
						<polygon points="764.74,516.57 722.81,479.18 713.48,479.18 754.79,516.57 						"/>
						<polygon points="775.62,526.28 765.51,526.28 808.38,565.09 819.12,565.09 						"/>
						<polygon points="722.72,526.28 765.59,565.09 779.26,565.09 736.39,526.28 						"/>
						<polygon points="662.84,479.18 704.76,516.57 711.41,516.57 670.1,479.18 						"/>
						<polygon points="670.69,479.18 712,516.57 725.67,516.57 684.37,479.18 						"/>
						<polygon points="736.98,526.28 779.85,565.09 793.53,565.09 750.66,526.28 						"/>
						<polygon points="751.25,526.28 794.12,565.09 807.79,565.09 764.92,526.28 						"/>
						<polygon points="628.89,526.28 671.76,565.09 676.02,565.09 632.51,526.28 						"/>
						<polygon points="654.98,526.28 697.84,565.09 711.52,565.09 668.65,526.28 						"/>
						<polygon points="647.09,526.28 690.6,565.09 697.26,565.09 654.39,526.28 						"/>
						<polygon points="617.21,479.18 658.52,516.57 672.2,516.57 630.89,479.18 						"/>
						<polygon points="596.14,526.28 639.01,565.09 654.75,565.09 611.89,526.28 						"/>
						<polygon points="612.52,526.28 655.38,565.09 671.13,565.09 628.26,526.28 						"/>
					</g>
				</g>
			</g>
		</g>
		<g>
			<path d="M342.99,378.55c-45.55,0-82.47,36.92-82.47,82.47c0,28.96,14.91,54.42,37.5,69.11L415.76,422.2
				C401.88,396.22,374.51,378.55,342.99,378.55z"/>
			<rect x="334.91" y="329.41" width="16.18" height="39.4"/>
			<rect x="211.38" y="452.94" width="39.4" height="16.18"/>
			<rect x="402.44" y="373.8" transform="matrix(0.7071 -0.7071 0.7071 0.7071 -146.3938 410.3508)" width="39.4" height="16.18"/>
			<rect x="244.16" y="532.07" transform="matrix(0.7071 -0.7071 0.7071 0.7071 -304.6692 344.781)" width="39.4" height="16.18"/>
			<rect x="255.77" y="362.19" transform="matrix(0.7071 -0.7071 0.7071 0.7071 -192.7497 298.4147)" width="16.18" height="39.4"/>
		</g>
	</g>
</g>
</svg>
