<?xml version="1.0" encoding="utf-8"?>
<!-- Generator: Adobe Illustrator 25.2.3, SVG Export Plug-In . SVG Version: 6.00 Build 0)  -->
<svg version="1.1" id="Layer_1" xmlns="http://www.w3.org/2000/svg" xmlns:xlink="http://www.w3.org/1999/xlink" x="0px" y="0px"
	 viewBox="0 0 1080 1080" style="enable-background:new 0 0 1080 1080;" xml:space="preserve">
<style type="text/css">
	.st0{fill:#14322C;}
	.st1{fill:#FFFFFF;}
	.st2{fill:url(#SVGID_1_);}
	.st3{fill:#3A75BA;}
	.st4{fill:#89ACD6;}
	.st5{fill:url(#SVGID_2_);}
	.st6{fill:url(#SVGID_3_);}
	.st7{fill:url(#SVGID_4_);}
	.st8{fill:url(#SVGID_5_);}
	.st9{fill:url(#SVGID_6_);}
	.st10{fill:url(#SVGID_7_);}
	.st11{fill:url(#SVGID_8_);}
	.st12{fill:url(#SVGID_9_);}
	.st13{fill:url(#SVGID_10_);}
	.st14{fill:url(#SVGID_11_);}
	.st15{fill:url(#SVGID_12_);}
	.st16{fill:url(#SVGID_13_);}
	.st17{fill:url(#SVGID_14_);}
	.st18{fill:url(#SVGID_15_);}
	.st19{fill:url(#SVGID_16_);}
	.st20{fill:url(#SVGID_17_);}
	.st21{fill:url(#SVGID_18_);}
	.st22{fill:url(#SVGID_19_);}
	.st23{fill:url(#SVGID_20_);}
	.st24{fill:url(#SVGID_21_);}
	.st25{fill:url(#SVGID_22_);}
	.st26{fill:url(#SVGID_23_);}
	.st27{fill:url(#SVGID_24_);}
	.st28{fill:url(#SVGID_25_);}
	.st29{fill:url(#SVGID_26_);}
	.st30{fill:url(#SVGID_27_);}
	.st31{fill:url(#SVGID_28_);}
	.st32{display:none;}
	.st33{display:inline;}
	.st34{fill:url(#SVGID_29_);}
	.st35{clip-path:url(#SVGID_39_);}
	.st36{clip-path:url(#SVGID_40_);}
	.st37{clip-path:url(#SVGID_41_);}
	.st38{clip-path:url(#SVGID_42_);}
	.st39{clip-path:url(#SVGID_43_);}
	.st40{clip-path:url(#SVGID_44_);}
	.st41{clip-path:url(#SVGID_45_);}
	.st42{clip-path:url(#SVGID_46_);}
	.st43{opacity:0.4;clip-path:url(#SVGID_47_);fill:none;stroke:#FFFFFF;stroke-width:0.4228;stroke-miterlimit:10;}
	.st44{opacity:0.4;clip-path:url(#SVGID_47_);fill:none;stroke:#FFFFFF;stroke-width:0.3946;stroke-miterlimit:10;}
	.st45{fill:url(#SVGID_48_);}
	.st46{fill:url(#SVGID_49_);}
	.st47{fill:url(#SVGID_50_);}
	.st48{fill:url(#SVGID_51_);}
	.st49{fill:url(#SVGID_52_);}
	.st50{fill:url(#SVGID_53_);}
	.st51{fill:#231F20;}
	.st52{fill:#0D2E4E;}
	.st53{fill:url(#SVGID_54_);}
	.st54{fill:#F9C510;}
	.st55{fill:none;stroke:#F9C510;stroke-width:5;stroke-miterlimit:10;}
	.st56{display:none;fill:#231F20;}
	.st57{display:inline;fill:none;stroke:#FFFFFF;stroke-width:3;stroke-miterlimit:10;}
	.st58{display:none;fill:none;stroke:#231F20;stroke-width:8;stroke-miterlimit:10;}
	.st59{display:none;fill:#FFFFFF;}
	.st60{display:inline;fill:none;stroke:#FFFFFF;stroke-width:5;stroke-miterlimit:10;}
	.st61{fill:none;stroke:#FFFFFF;stroke-width:5;stroke-miterlimit:10;}
	.st62{display:inline;fill:#0D2E4E;}
	.st63{fill:url(#SVGID_55_);}
</style>
<g>
	<g>
		<path d="M212.56,544.51h40.95l-9.17,45.84h-18.65l-3-10.12h-0.63c-2.74,3.16-5.98,5.85-9.72,8.06c-3.74,2.21-8.62,3.32-14.62,3.32
			c-4.64,0-9.09-0.77-13.36-2.29c-4.27-1.53-8.06-3.95-11.38-7.27c-3.32-3.32-5.98-7.67-7.98-13.04c-2-5.37-3-11.86-3-19.44
			c0-8.22,1.27-16.02,3.79-23.4c2.53-7.38,6.32-13.88,11.38-19.52c5.06-5.64,11.38-10.09,18.97-13.36c7.59-3.27,16.44-4.9,26.56-4.9
			c7.8,0,14.6,0.9,20.39,2.69c5.8,1.79,11.28,3.8,16.44,6.01l-6.01,30.67h-26.72c0.1-1.16,0.26-2.53,0.47-4.11
			c0.21-1.58,0.37-3.24,0.47-4.98c0.1-1.74,0.21-3.45,0.32-5.14c0.1-1.69,0.16-3.16,0.16-4.43c0-0.84-0.05-1.82-0.16-2.92
			c-0.11-1.11-0.37-2.19-0.79-3.24c-0.42-1.05-1.05-1.92-1.9-2.61c-0.84-0.68-2.05-1.03-3.64-1.03c-2.74,0-5.24,1.13-7.51,3.4
			c-2.27,2.27-4.3,5.27-6.09,9.01c-1.79,3.74-3.35,7.98-4.66,12.73c-1.32,4.74-2.43,9.56-3.32,14.47c-0.9,4.9-1.58,9.7-2.05,14.39
			c-0.47,4.69-0.71,8.77-0.71,12.25c0,1.05,0.05,2.37,0.16,3.95c0.1,1.58,0.45,3.14,1.03,4.66c0.58,1.53,1.42,2.85,2.53,3.95
			c1.11,1.11,2.71,1.66,4.82,1.66c3.48,0,6.85-1.9,10.12-5.69c3.27-3.79,5.74-10.12,7.43-18.97h-13.28L212.56,544.51z"/>
		<path d="M356.41,513.84c0,6.22-1.74,11.96-5.22,17.23c-3.48,5.27-9.22,9.28-17.23,12.01l18.34,47.27h-35.25l-13.91-43.79h-1.74
			l-9.33,43.79h-34.15l21.34-100.39h41.58c4.85,0,9.43,0.29,13.75,0.87c4.32,0.58,8.09,1.74,11.3,3.48
			c3.21,1.74,5.77,4.16,7.67,7.27C355.47,504.69,356.41,508.78,356.41,513.84z M310.89,536.44c2.74,0,5.08-0.92,7.04-2.77
			c1.95-1.84,3.53-4.08,4.74-6.72c1.21-2.63,2.08-5.45,2.61-8.46c0.53-3,0.79-5.61,0.79-7.83c0-2.74-0.47-5.08-1.42-7.03
			c-0.95-1.95-3-2.92-6.17-2.92h-7.11l-7.9,35.73H310.89z"/>
		<path d="M392.14,590.35h-34.15l21.34-100.39h34.31L392.14,590.35z"/>
		<path d="M409.53,590.35l21.34-100.39h42.53c6.53,0,12.25,0.66,17.15,1.98c4.9,1.32,8.96,3.5,12.17,6.56
			c3.21,3.06,5.64,7.06,7.27,12.01c1.63,4.95,2.45,11.01,2.45,18.18c0,7.69-0.98,15.23-2.92,22.61c-1.95,7.38-5.19,13.97-9.72,19.76
			c-4.53,5.8-10.46,10.46-17.79,13.99c-7.33,3.53-16.36,5.3-27.11,5.3H409.53z M452.85,579.29c3.48,0,6.56-1.45,9.25-4.35
			c2.69-2.9,5-6.59,6.96-11.07c1.95-4.48,3.58-9.43,4.9-14.86c1.32-5.43,2.37-10.67,3.16-15.73s1.37-9.59,1.74-13.6
			c0.37-4,0.55-6.85,0.55-8.54c0-3.27-0.66-5.82-1.98-7.67c-1.32-1.84-3.61-2.77-6.88-2.77h-7.59l-16.92,78.57H452.85z"/>
		<path d="M545.26,575.97l52.01-73.99h-39.84l2.37-12.01h78.1l-1.42,13.44l-51.54,74.93h41.58l-2.21,12.01h-81.89L545.26,575.97z"/>
		<path d="M654.5,489.97h66.55l-2.53,12.01h-32.25l-6.64,30.51h27.03l-2.53,11.86h-27.03l-7.27,33.83h32.25l-2.37,12.17h-66.55
			L654.5,489.97z"/>
		<path d="M811.16,513.84c0,6.22-1.74,11.96-5.22,17.23c-3.48,5.27-9.22,9.28-17.23,12.01l18.34,47.27H771.8l-13.91-43.79h-1.74
			l-9.33,43.79h-34.15l21.34-100.39h41.58c4.85,0,9.43,0.29,13.75,0.87c4.32,0.58,8.09,1.74,11.3,3.48
			c3.21,1.74,5.77,4.16,7.67,7.27C810.22,504.69,811.16,508.78,811.16,513.84z M765.63,536.44c2.74,0,5.08-0.92,7.04-2.77
			c1.95-1.84,3.53-4.08,4.74-6.72c1.21-2.63,2.08-5.45,2.61-8.46c0.53-3,0.79-5.61,0.79-7.83c0-2.74-0.47-5.08-1.42-7.03
			c-0.95-1.95-3-2.92-6.17-2.92h-7.11l-7.9,35.73H765.63z"/>
		<path d="M875.98,488.38c9.06,0,16.41,1.16,22.05,3.48c5.64,2.32,10.09,5.9,13.36,10.75c2.11,3.27,3.74,6.96,4.9,11.07
			c1.16,4.11,1.74,8.85,1.74,14.23c0,4.64-0.42,9.27-1.27,13.91c-0.84,4.64-2.03,9.09-3.56,13.36c-1.53,4.27-3.37,8.27-5.53,12.01
			c-2.16,3.74-4.56,7.03-7.19,9.88c-4.95,5.37-10.67,9.14-17.15,11.3c-6.48,2.16-14.47,3.24-23.95,3.24
			c-9.17,0-16.55-0.95-22.13-2.85c-5.59-1.9-10.01-4.95-13.28-9.17c-2.32-2.95-4.14-6.69-5.45-11.22
			c-1.32-4.53-1.98-10.22-1.98-17.07c0-11.7,2.08-22.16,6.24-31.38c4.16-9.22,10.09-16.52,17.78-21.9c4.64-3.27,9.8-5.69,15.49-7.27
			C861.75,489.18,868.39,488.38,875.98,488.38z M858.12,580.55c2.42,0,4.72-1.08,6.88-3.24c2.16-2.16,4.16-5.06,6.01-8.69
			c1.84-3.64,3.53-7.77,5.06-12.41c1.53-4.64,2.82-9.43,3.87-14.39c1.05-4.95,1.87-9.88,2.45-14.78c0.58-4.9,0.87-9.35,0.87-13.36
			c0-5.48-0.55-9.25-1.66-11.3c-1.11-2.05-2.71-3.08-4.82-3.08c-2.43,0-4.74,1.05-6.96,3.16c-2.21,2.11-4.3,4.93-6.24,8.46
			c-1.95,3.53-3.69,7.59-5.22,12.17c-1.53,4.58-2.85,9.3-3.95,14.15c-1.11,4.85-1.95,9.64-2.53,14.39
			c-0.58,4.74-0.87,9.12-0.87,13.12c0,6.01,0.66,10.14,1.98,12.41C854.3,579.42,856.01,580.55,858.12,580.55z"/>
	</g>
</g>
</svg>
