<?xml version="1.0" encoding="utf-8"?>
<!-- Generator: Adobe Illustrator 25.2.3, SVG Export Plug-In . SVG Version: 6.00 Build 0)  -->
<svg version="1.1" id="Layer_1" xmlns="http://www.w3.org/2000/svg" xmlns:xlink="http://www.w3.org/1999/xlink" x="0px" y="0px"
	 viewBox="0 0 1080 1080" style="enable-background:new 0 0 1080 1080;" xml:space="preserve">
<style type="text/css">
	.st0{fill:#14322C;}
	.st1{fill:#FFFFFF;}
	.st2{fill:url(#SVGID_1_);}
	.st3{fill:#3A75BA;}
	.st4{fill:#89ACD6;}
	.st5{fill:url(#SVGID_2_);}
	.st6{fill:url(#SVGID_3_);}
	.st7{fill:url(#SVGID_4_);}
	.st8{fill:url(#SVGID_5_);}
	.st9{fill:url(#SVGID_6_);}
	.st10{fill:url(#SVGID_7_);}
	.st11{fill:url(#SVGID_8_);}
	.st12{fill:url(#SVGID_9_);}
	.st13{fill:url(#SVGID_10_);}
	.st14{fill:url(#SVGID_11_);}
	.st15{fill:url(#SVGID_12_);}
	.st16{fill:url(#SVGID_13_);}
	.st17{fill:url(#SVGID_14_);}
	.st18{fill:url(#SVGID_15_);}
	.st19{fill:url(#SVGID_16_);}
	.st20{fill:url(#SVGID_17_);}
	.st21{fill:url(#SVGID_18_);}
	.st22{fill:url(#SVGID_19_);}
	.st23{fill:url(#SVGID_20_);}
	.st24{fill:url(#SVGID_21_);}
	.st25{fill:url(#SVGID_22_);}
	.st26{fill:url(#SVGID_23_);}
	.st27{fill:url(#SVGID_24_);}
	.st28{fill:url(#SVGID_25_);}
	.st29{fill:url(#SVGID_26_);}
	.st30{fill:url(#SVGID_27_);}
	.st31{fill:url(#SVGID_28_);}
	.st32{display:none;}
	.st33{display:inline;}
	.st34{fill:url(#SVGID_29_);}
	.st35{clip-path:url(#SVGID_39_);}
	.st36{clip-path:url(#SVGID_40_);}
	.st37{clip-path:url(#SVGID_41_);}
	.st38{clip-path:url(#SVGID_42_);}
	.st39{clip-path:url(#SVGID_43_);}
	.st40{clip-path:url(#SVGID_44_);}
	.st41{clip-path:url(#SVGID_45_);}
	.st42{clip-path:url(#SVGID_46_);}
	.st43{opacity:0.4;clip-path:url(#SVGID_47_);fill:none;stroke:#FFFFFF;stroke-width:0.4228;stroke-miterlimit:10;}
	.st44{opacity:0.4;clip-path:url(#SVGID_47_);fill:none;stroke:#FFFFFF;stroke-width:0.3946;stroke-miterlimit:10;}
	.st45{fill:url(#SVGID_48_);}
	.st46{fill:url(#SVGID_49_);}
	.st47{fill:url(#SVGID_50_);}
	.st48{fill:url(#SVGID_51_);}
	.st49{fill:url(#SVGID_52_);}
	.st50{fill:url(#SVGID_53_);}
	.st51{fill:#231F20;}
	.st52{fill:#0D2E4E;}
	.st53{fill:url(#SVGID_54_);}
	.st54{fill:#F9C510;}
	.st55{fill:none;stroke:#F9C510;stroke-width:5;stroke-miterlimit:10;}
	.st56{display:none;fill:#231F20;}
	.st57{display:inline;fill:none;stroke:#FFFFFF;stroke-width:3;stroke-miterlimit:10;}
	.st58{display:none;fill:none;stroke:#231F20;stroke-width:8;stroke-miterlimit:10;}
	.st59{display:none;fill:#FFFFFF;}
	.st60{display:inline;fill:none;stroke:#FFFFFF;stroke-width:5;stroke-miterlimit:10;}
	.st61{fill:none;stroke:#FFFFFF;stroke-width:5;stroke-miterlimit:10;}
	.st62{display:inline;fill:#0D2E4E;}
	.st63{fill:url(#SVGID_55_);}
</style>
<rect class="st0" width="1080" height="1080"/>
<g>
	<g>
		<g>
			<g>
				<g>
					<g>
						<g>
							<g>
								<g>
									<g>
										<g>
											<path class="st1" d="M476.43,533.08h-87.09c-7.6,0-13.75,6.16-13.76,13.76v141.09c0,7.6,6.16,13.75,13.76,13.76h87.09
												c7.6,0,13.75-6.16,13.76-13.76V546.84C490.19,539.24,484.03,533.08,476.43,533.08z M481.72,687.92
												c0,1.47-0.59,2.77-1.55,3.74c-0.97,0.96-2.27,1.55-3.74,1.55h-87.09c-1.47,0-2.77-0.59-3.74-1.55
												c-0.96-0.97-1.55-2.27-1.55-3.74V546.84c0-1.47,0.59-2.77,1.55-3.74c0.97-0.96,2.27-1.55,3.74-1.55h87.09
												c1.47,0,2.77,0.59,3.74,1.55c0.96,0.97,1.55,2.27,1.55,3.74V687.92z"/>
											<path class="st1" d="M457.03,537.92h-48.28v-16.47c0-1.86,1.5-3.36,3.36-3.36h41.56c1.86,0,3.36,1.5,3.36,3.36V537.92z"
												/>
											<g>
												<linearGradient id="SVGID_1_" gradientUnits="userSpaceOnUse" x1="433.2634" y1="553.0709" x2="432.533" y2="677.6182">
													<stop  offset="0" style="stop-color:#A7CE38"/>
													<stop  offset="1" style="stop-color:#04793E"/>
												</linearGradient>
												<path class="st2" d="M473.78,549.49c-0.53-0.53-1.26-0.83-2-0.83h-77.78c-0.75,0-1.48,0.3-2,0.83
													c-0.53,0.53-0.83,1.26-0.83,2.01v131.78c0,0.75,0.3,1.48,0.83,2c0.53,0.53,1.26,0.83,2,0.83h77.78
													c0.75,0,1.48-0.3,2-0.83c0.53-0.53,0.83-1.26,0.83-2V551.49C474.61,550.74,474.31,550.01,473.78,549.49z M417.67,671.68
													l12.48-48.11h-23.96l36.22-54.32l6.33-9.5l-10.25,45.54h25.06L417.67,671.68z"/>
											</g>
										</g>
										<g>
											<g>
												<polygon class="st1" points="868.62,560.35 806.47,560.35 806.47,692 780.59,692 780.59,560.35 579.08,560.35 
													579.08,692 498.26,692 498.26,666.12 553.2,666.12 553.2,527.13 432.88,416.83 312.58,527.13 312.58,666.12 
													367.49,666.12 367.49,692 286.7,692 286.7,550.94 248.33,550.94 432.88,381.73 599.47,534.47 839.63,534.47 
																									"/>
											</g>
										</g>
									</g>
								</g>
							</g>
						</g>
						<g>
							<polygon class="st3" points="519.73,430.26 561.66,467.66 568.42,467.66 527.11,430.26 							"/>
							<polygon class="st3" points="549.14,420.56 506.27,381.75 490.52,381.75 533.39,420.56 							"/>
							<polygon class="st3" points="465.35,381.75 508.85,420.56 516.39,420.56 473.52,381.75 							"/>
							<polygon class="st3" points="579.77,477.36 622.64,516.17 638.38,516.17 595.51,477.36 							"/>
							<polygon class="st3" points="568.83,420.56 525.33,381.75 523.27,381.75 566.14,420.56 							"/>
							<polygon class="st3" points="489.9,381.75 474.15,381.75 517.02,420.56 532.77,420.56 							"/>
							<polygon class="st3" points="572.54,477.36 616.04,516.17 622.01,516.17 579.14,477.36 							"/>
							<polygon class="st3" points="543.49,430.26 527.74,430.26 569.05,467.66 584.79,467.66 							"/>
							<polygon class="st3" points="621.63,467.66 579.71,430.26 576.86,430.26 618.17,467.66 							"/>
							<polygon class="st3" points="617.54,467.66 576.23,430.26 560.49,430.26 601.79,467.66 							"/>
							<polygon class="st3" points="601.17,467.66 559.86,430.26 544.12,430.26 585.42,467.66 							"/>
							<polygon class="st3" points="565.51,420.56 522.64,381.75 506.9,381.75 549.77,420.56 							"/>
							<polygon class="st3" points="637.37,420.56 593.87,381.75 592.15,381.75 635.02,420.56 							"/>
							<polygon class="st3" points="702.18,420.56 659.31,381.75 645.63,381.75 688.5,420.56 							"/>
							<polygon class="st3" points="659.38,420.56 616.51,381.75 608.45,381.75 651.95,420.56 							"/>
							<polygon class="st3" points="634.44,420.56 591.57,381.75 577.89,381.75 620.76,420.56 							"/>
							<polygon class="st3" points="687.91,420.56 645.04,381.75 631.36,381.75 674.23,420.56 							"/>
							<polygon class="st3" points="711.93,420.56 668.43,381.75 659.89,381.75 702.76,420.56 							"/>
							<polygon class="st3" points="631.48,430.26 672.79,467.66 686.46,467.66 645.16,430.26 							"/>
							<polygon class="st3" points="605.9,420.56 563.03,381.75 549.36,381.75 592.23,420.56 							"/>
							<polygon class="st3" points="645.75,430.26 687.05,467.66 690.17,467.66 648.25,430.26 							"/>
							<polygon class="st3" points="620.17,420.56 577.3,381.75 563.62,381.75 606.49,420.56 							"/>
							<polygon class="st3" points="591.64,420.56 548.77,381.75 539.91,381.75 583.41,420.56 							"/>
							<polygon class="st3" points="740.53,467.66 754.2,467.66 712.9,430.26 699.22,430.26 							"/>
							<polygon class="st3" points="673.65,420.56 630.78,381.75 617.1,381.75 659.97,420.56 							"/>
							<polygon class="st3" points="697.77,477.36 740.64,516.17 744.56,516.17 701.05,477.36 							"/>
							<polygon class="st3" points="715.64,477.36 759.14,516.17 765,516.17 722.13,477.36 							"/>
							<polygon class="st3" points="669.24,477.36 712.11,516.17 725.79,516.17 682.92,477.36 							"/>
							<polygon class="st3" points="683.51,477.36 726.38,516.17 740.05,516.17 697.18,477.36 							"/>
							<polygon class="st3" points="602.95,430.26 644.26,467.66 657.93,467.66 616.63,430.26 							"/>
							<polygon class="st3" points="594.3,430.26 636.21,467.66 643.67,467.66 602.36,430.26 							"/>
							<polygon class="st3" points="684.95,430.26 726.26,467.66 739.94,467.66 698.63,430.26 							"/>
							<polygon class="st3" points="764.74,467.66 722.81,430.26 713.48,430.26 754.79,467.66 							"/>
							<polygon class="st3" points="775.62,477.36 765.51,477.36 808.38,516.17 819.12,516.17 							"/>
							<polygon class="st3" points="722.72,477.36 765.59,516.17 779.26,516.17 736.39,477.36 							"/>
							<polygon class="st3" points="662.84,430.26 704.76,467.66 711.41,467.66 670.1,430.26 							"/>
							<polygon class="st3" points="670.69,430.26 712,467.66 725.67,467.66 684.37,430.26 							"/>
							<polygon class="st3" points="736.98,477.36 779.85,516.17 793.53,516.17 750.66,477.36 							"/>
							<polygon class="st3" points="751.25,477.36 794.12,516.17 807.79,516.17 764.92,477.36 							"/>
							<polygon class="st3" points="628.89,477.36 671.76,516.17 676.02,516.17 632.51,477.36 							"/>
							<polygon class="st3" points="654.98,477.36 697.84,516.17 711.52,516.17 668.65,477.36 							"/>
							<polygon class="st3" points="647.09,477.36 690.6,516.17 697.26,516.17 654.39,477.36 							"/>
							<polygon class="st3" points="617.21,430.26 658.52,467.66 672.2,467.66 630.89,430.26 							"/>
							<polygon class="st3" points="596.14,477.36 639.01,516.17 654.75,516.17 611.89,477.36 							"/>
							<polygon class="st3" points="612.52,477.36 655.38,516.17 671.13,516.17 628.26,477.36 							"/>
							<polygon class="st4" points="473.52,381.75 516.39,420.56 517.02,420.56 474.15,381.75 							"/>
							<polygon class="st4" points="527.11,430.26 568.42,467.66 569.05,467.66 527.74,430.26 							"/>
							<polygon class="st4" points="579.14,477.36 622.01,516.17 622.64,516.17 579.77,477.36 							"/>
							<polygon class="st4" points="533.39,420.56 490.52,381.75 489.9,381.75 532.77,420.56 							"/>
							<polygon class="st4" points="585.42,467.66 544.12,430.26 543.49,430.26 584.79,467.66 							"/>
							<polygon class="st4" points="595.51,477.36 638.38,516.17 639.01,516.17 596.14,477.36 							"/>
							<polygon class="st4" points="549.77,420.56 506.9,381.75 506.27,381.75 549.14,420.56 							"/>
							<polygon class="st4" points="601.79,467.66 560.49,430.26 559.86,430.26 601.17,467.66 							"/>
							<polygon class="st4" points="611.89,477.36 654.75,516.17 655.38,516.17 612.52,477.36 							"/>
							<polygon class="st4" points="566.14,420.56 523.27,381.75 522.64,381.75 565.51,420.56 							"/>
							<polygon class="st4" points="618.17,467.66 576.86,430.26 576.23,430.26 617.54,467.66 							"/>
							<polygon class="st4" points="628.26,477.36 671.13,516.17 671.76,516.17 628.89,477.36 							"/>
							<polygon class="st4" points="592.23,420.56 549.36,381.75 548.77,381.75 591.64,420.56 							"/>
							<polygon class="st4" points="602.36,430.26 643.67,467.66 644.26,467.66 602.95,430.26 							"/>
							<polygon class="st4" points="654.39,477.36 697.26,516.17 697.84,516.17 654.98,477.36 							"/>
							<polygon class="st4" points="606.49,420.56 563.62,381.75 563.03,381.75 605.9,420.56 							"/>
							<polygon class="st4" points="616.63,430.26 657.93,467.66 658.52,467.66 617.21,430.26 							"/>
							<polygon class="st4" points="668.65,477.36 711.52,516.17 712.11,516.17 669.24,477.36 							"/>
							<polygon class="st4" points="620.76,420.56 577.89,381.75 577.3,381.75 620.17,420.56 							"/>
							<polygon class="st4" points="630.89,430.26 672.2,467.66 672.79,467.66 631.48,430.26 							"/>
							<polygon class="st4" points="682.92,477.36 725.79,516.17 726.38,516.17 683.51,477.36 							"/>
							<polygon class="st4" points="635.02,420.56 592.15,381.75 591.57,381.75 634.44,420.56 							"/>
							<polygon class="st4" points="645.16,430.26 686.46,467.66 687.05,467.66 645.75,430.26 							"/>
							<polygon class="st4" points="697.18,477.36 740.05,516.17 740.64,516.17 697.77,477.36 							"/>
							<polygon class="st4" points="659.97,420.56 617.1,381.75 616.51,381.75 659.38,420.56 							"/>
							<polygon class="st4" points="670.1,430.26 711.41,467.66 712,467.66 670.69,430.26 							"/>
							<polygon class="st4" points="722.13,477.36 765,516.17 765.59,516.17 722.72,477.36 							"/>
							<polygon class="st4" points="674.23,420.56 631.36,381.75 630.78,381.75 673.65,420.56 							"/>
							<polygon class="st4" points="684.37,430.26 725.67,467.66 726.26,467.66 684.95,430.26 							"/>
							<polygon class="st4" points="736.39,477.36 779.26,516.17 779.85,516.17 736.98,477.36 							"/>
							<polygon class="st4" points="688.5,420.56 645.63,381.75 645.04,381.75 687.91,420.56 							"/>
							<polygon class="st4" points="698.63,430.26 739.94,467.66 740.53,467.66 699.22,430.26 							"/>
							<polygon class="st4" points="750.66,477.36 793.53,516.17 794.12,516.17 751.25,477.36 							"/>
							<polygon class="st4" points="702.76,420.56 659.89,381.75 659.31,381.75 702.18,420.56 							"/>
							<polygon class="st4" points="754.79,467.66 713.48,430.26 712.9,430.26 754.2,467.66 							"/>
							<polygon class="st4" points="764.92,477.36 807.79,516.17 808.38,516.17 765.51,477.36 							"/>
						</g>
					</g>
				</g>
			</g>
		</g>
		<g>
			<linearGradient id="SVGID_2_" gradientUnits="userSpaceOnUse" x1="376.4835" y1="292.9173" x2="287.3646" y2="505.4878">
				<stop  offset="0" style="stop-color:#F9EC31"/>
				<stop  offset="1" style="stop-color:#F05A28"/>
			</linearGradient>
			<path class="st5" d="M342.99,329.64c-45.55,0-82.47,36.92-82.47,82.47c0,28.96,14.91,54.42,37.5,69.11l117.74-107.93
				C401.88,347.3,374.51,329.64,342.99,329.64z"/>
			<linearGradient id="SVGID_3_" gradientUnits="userSpaceOnUse" x1="350.5949" y1="282.0637" x2="261.476" y2="494.6342">
				<stop  offset="0" style="stop-color:#F9EC31"/>
				<stop  offset="1" style="stop-color:#F05A28"/>
			</linearGradient>
			<rect x="334.91" y="280.49" class="st6" width="16.18" height="39.4"/>
			<linearGradient id="SVGID_4_" gradientUnits="userSpaceOnUse" x1="295.3152" y1="258.888" x2="206.1963" y2="471.4585">
				<stop  offset="0" style="stop-color:#F9EC31"/>
				<stop  offset="1" style="stop-color:#F05A28"/>
			</linearGradient>
			<rect x="211.38" y="404.02" class="st7" width="39.4" height="16.18"/>
			<linearGradient id="SVGID_5_" gradientUnits="userSpaceOnUse" x1="429.5922" y1="315.1828" x2="340.4733" y2="527.7533">
				<stop  offset="0" style="stop-color:#F9EC31"/>
				<stop  offset="1" style="stop-color:#F05A28"/>
			</linearGradient>
			<polygon class="st8" points="441.78,324.76 430.34,313.32 402.49,341.18 413.92,352.62 			"/>
			<linearGradient id="SVGID_6_" gradientUnits="userSpaceOnUse" x1="351.4137" y1="282.407" x2="262.2948" y2="494.9774">
				<stop  offset="0" style="stop-color:#F9EC31"/>
				<stop  offset="1" style="stop-color:#F05A28"/>
			</linearGradient>
			<polygon class="st9" points="244.21,499.46 255.65,510.9 283.51,483.04 272.07,471.6 			"/>
			<linearGradient id="SVGID_7_" gradientUnits="userSpaceOnUse" x1="294.9767" y1="258.7461" x2="205.8578" y2="471.3166">
				<stop  offset="0" style="stop-color:#F9EC31"/>
				<stop  offset="1" style="stop-color:#F05A28"/>
			</linearGradient>
			<polygon class="st10" points="283.51,341.18 255.65,313.32 244.21,324.76 272.07,352.62 			"/>
		</g>
	</g>
	<g>
		<path class="st1" d="M315.14,765.45h29.6l-6.63,33.15h-13.49l-2.17-7.31h-0.46c-1.98,2.29-4.33,4.23-7.03,5.83
			c-2.71,1.6-6.23,2.4-10.57,2.4c-3.35,0-6.57-0.55-9.66-1.66c-3.09-1.1-5.83-2.86-8.23-5.26c-2.4-2.4-4.33-5.54-5.77-9.43
			c-1.45-3.89-2.17-8.57-2.17-14.06c0-5.94,0.91-11.58,2.74-16.92c1.83-5.33,4.57-10.04,8.23-14.12c3.66-4.08,8.23-7.29,13.72-9.66
			c5.49-2.36,11.89-3.54,19.2-3.54c5.64,0,10.55,0.65,14.74,1.94c4.19,1.3,8.15,2.74,11.89,4.34l-4.34,22.17h-19.32
			c0.07-0.84,0.19-1.83,0.34-2.97c0.15-1.14,0.27-2.34,0.34-3.6c0.08-1.26,0.15-2.49,0.23-3.71c0.08-1.22,0.11-2.29,0.11-3.2
			c0-0.61-0.04-1.31-0.11-2.11c-0.08-0.8-0.27-1.58-0.57-2.34c-0.31-0.76-0.76-1.39-1.37-1.89c-0.61-0.49-1.49-0.74-2.63-0.74
			c-1.98,0-3.79,0.82-5.43,2.46c-1.64,1.64-3.11,3.81-4.4,6.51c-1.3,2.71-2.42,5.77-3.37,9.2c-0.95,3.43-1.75,6.92-2.4,10.46
			c-0.65,3.54-1.14,7.01-1.49,10.4c-0.34,3.39-0.51,6.34-0.51,8.86c0,0.76,0.04,1.71,0.11,2.86c0.08,1.14,0.32,2.27,0.74,3.37
			c0.42,1.11,1.03,2.06,1.83,2.86c0.8,0.8,1.96,1.2,3.49,1.2c2.51,0,4.95-1.37,7.31-4.11c2.36-2.74,4.15-7.31,5.37-13.72h-9.6
			L315.14,765.45z"/>
		<path class="st1" d="M419.15,743.27c0,4.5-1.26,8.65-3.77,12.46c-2.51,3.81-6.67,6.71-12.46,8.69l13.26,34.18h-25.49l-10.06-31.66
			h-1.26l-6.74,31.66h-24.69l15.43-72.58h30.06c3.5,0,6.82,0.21,9.94,0.63c3.12,0.42,5.85,1.26,8.17,2.51
			c2.32,1.26,4.17,3.01,5.54,5.26C418.46,736.66,419.15,739.62,419.15,743.27z M386.23,759.62c1.98,0,3.68-0.67,5.09-2
			c1.41-1.33,2.55-2.95,3.43-4.86c0.88-1.9,1.5-3.94,1.89-6.11c0.38-2.17,0.57-4.06,0.57-5.66c0-1.98-0.34-3.67-1.03-5.09
			c-0.69-1.41-2.17-2.11-4.46-2.11h-5.14l-5.71,25.83H386.23z"/>
		<path class="st1" d="M444.98,798.59h-24.69l15.43-72.58h24.8L444.98,798.59z"/>
		<path class="st1" d="M457.55,798.59l15.43-72.58h30.75c4.72,0,8.86,0.48,12.4,1.43c3.54,0.95,6.48,2.53,8.8,4.74
			c2.32,2.21,4.08,5.11,5.26,8.69c1.18,3.58,1.77,7.96,1.77,13.14c0,5.56-0.71,11.01-2.11,16.34c-1.41,5.33-3.75,10.1-7.03,14.29
			c-3.28,4.19-7.56,7.56-12.86,10.12c-5.3,2.55-11.83,3.83-19.6,3.83H457.55z M488.86,790.59c2.51,0,4.74-1.05,6.69-3.14
			c1.94-2.1,3.62-4.76,5.03-8c1.41-3.24,2.59-6.82,3.54-10.74c0.95-3.92,1.71-7.72,2.29-11.37c0.57-3.66,0.99-6.93,1.26-9.83
			c0.27-2.89,0.4-4.95,0.4-6.17c0-2.36-0.48-4.21-1.43-5.54c-0.95-1.33-2.61-2-4.97-2h-5.49l-12.23,56.81H488.86z"/>
		<path class="st1" d="M555.68,788.19l37.6-53.49h-28.8l1.71-8.69h56.46l-1.03,9.71l-37.26,54.18h30.06l-1.6,8.69h-59.21
			L555.68,788.19z"/>
		<path class="st1" d="M634.66,726.02h48.12l-1.83,8.69h-23.32l-4.8,22.06h19.54l-1.83,8.57H651l-5.26,24.46h23.32l-1.71,8.8h-48.12
			L634.66,726.02z"/>
		<path class="st1" d="M747.93,743.27c0,4.5-1.26,8.65-3.77,12.46c-2.51,3.81-6.67,6.71-12.46,8.69l13.26,34.18h-25.49l-10.06-31.66
			h-1.26l-6.74,31.66h-24.69l15.43-72.58h30.06c3.5,0,6.82,0.21,9.94,0.63c3.12,0.42,5.85,1.26,8.17,2.51
			c2.32,1.26,4.17,3.01,5.54,5.26C747.24,736.66,747.93,739.62,747.93,743.27z M715.01,759.62c1.98,0,3.68-0.67,5.09-2
			c1.41-1.33,2.55-2.95,3.43-4.86c0.88-1.9,1.5-3.94,1.89-6.11c0.38-2.17,0.57-4.06,0.57-5.66c0-1.98-0.34-3.67-1.03-5.09
			c-0.69-1.41-2.17-2.11-4.46-2.11h-5.14l-5.71,25.83H715.01z"/>
		<path class="st1" d="M794.79,724.87c6.55,0,11.87,0.84,15.94,2.52c4.08,1.68,7.29,4.27,9.66,7.77c1.52,2.36,2.7,5.03,3.54,8
			c0.84,2.97,1.26,6.4,1.26,10.29c0,3.35-0.31,6.71-0.91,10.06c-0.61,3.35-1.47,6.57-2.57,9.66c-1.11,3.09-2.44,5.98-4,8.69
			c-1.56,2.71-3.3,5.09-5.2,7.14c-3.58,3.89-7.72,6.61-12.4,8.17c-4.69,1.56-10.46,2.34-17.32,2.34c-6.63,0-11.96-0.69-16-2.06
			c-4.04-1.37-7.24-3.58-9.6-6.63c-1.68-2.13-2.99-4.84-3.94-8.12c-0.95-3.28-1.43-7.39-1.43-12.34c0-8.46,1.5-16.02,4.52-22.69
			c3.01-6.67,7.29-11.94,12.86-15.83c3.35-2.36,7.09-4.11,11.2-5.26C784.5,725.44,789.3,724.87,794.79,724.87z M781.87,791.51
			c1.75,0,3.41-0.78,4.97-2.34c1.56-1.56,3.01-3.66,4.34-6.29c1.33-2.63,2.55-5.62,3.66-8.97c1.1-3.35,2.04-6.82,2.8-10.4
			c0.76-3.58,1.35-7.14,1.77-10.69c0.42-3.54,0.63-6.76,0.63-9.66c0-3.96-0.4-6.69-1.2-8.17c-0.8-1.49-1.96-2.23-3.49-2.23
			c-1.75,0-3.43,0.76-5.03,2.29c-1.6,1.53-3.11,3.56-4.52,6.11c-1.41,2.55-2.67,5.49-3.77,8.8c-1.11,3.31-2.06,6.73-2.86,10.23
			c-0.8,3.51-1.41,6.97-1.83,10.4c-0.42,3.43-0.63,6.59-0.63,9.49c0,4.34,0.47,7.33,1.43,8.97
			C779.11,790.69,780.35,791.51,781.87,791.51z"/>
	</g>
</g>
</svg>
