<?xml version="1.0" encoding="utf-8"?>
<!-- Generator: Adobe Illustrator 25.2.3, SVG Export Plug-In . SVG Version: 6.00 Build 0)  -->
<svg version="1.1" id="Layer_1" xmlns="http://www.w3.org/2000/svg" xmlns:xlink="http://www.w3.org/1999/xlink" x="0px" y="0px"
	 viewBox="0 0 1080 1080" style="enable-background:new 0 0 1080 1080;" xml:space="preserve">
<style type="text/css">
	.st0{fill:#14322C;}
	.st1{fill:#FFFFFF;}
	.st2{fill:url(#SVGID_1_);}
	.st3{fill:#3A75BA;}
	.st4{fill:#89ACD6;}
	.st5{fill:url(#SVGID_2_);}
	.st6{fill:url(#SVGID_3_);}
	.st7{fill:url(#SVGID_4_);}
	.st8{fill:url(#SVGID_5_);}
	.st9{fill:url(#SVGID_6_);}
	.st10{fill:url(#SVGID_7_);}
	.st11{fill:url(#SVGID_8_);}
	.st12{fill:url(#SVGID_9_);}
	.st13{fill:url(#SVGID_10_);}
	.st14{fill:url(#SVGID_11_);}
	.st15{fill:url(#SVGID_12_);}
	.st16{fill:url(#SVGID_13_);}
	.st17{fill:url(#SVGID_14_);}
	.st18{fill:url(#SVGID_15_);}
	.st19{fill:url(#SVGID_16_);}
	.st20{fill:url(#SVGID_17_);}
	.st21{fill:url(#SVGID_18_);}
	.st22{fill:url(#SVGID_19_);}
	.st23{fill:url(#SVGID_20_);}
	.st24{fill:url(#SVGID_21_);}
	.st25{fill:url(#SVGID_22_);}
	.st26{fill:url(#SVGID_23_);}
	.st27{fill:url(#SVGID_24_);}
	.st28{fill:url(#SVGID_25_);}
	.st29{fill:url(#SVGID_26_);}
	.st30{fill:url(#SVGID_27_);}
	.st31{fill:url(#SVGID_28_);}
	.st32{display:none;}
	.st33{display:inline;}
	.st34{fill:url(#SVGID_29_);}
	.st35{clip-path:url(#SVGID_39_);}
	.st36{clip-path:url(#SVGID_40_);}
	.st37{clip-path:url(#SVGID_41_);}
	.st38{clip-path:url(#SVGID_42_);}
	.st39{clip-path:url(#SVGID_43_);}
	.st40{clip-path:url(#SVGID_44_);}
	.st41{clip-path:url(#SVGID_45_);}
	.st42{clip-path:url(#SVGID_46_);}
	.st43{opacity:0.4;clip-path:url(#SVGID_47_);fill:none;stroke:#FFFFFF;stroke-width:0.4228;stroke-miterlimit:10;}
	.st44{opacity:0.4;clip-path:url(#SVGID_47_);fill:none;stroke:#FFFFFF;stroke-width:0.3946;stroke-miterlimit:10;}
	.st45{fill:url(#SVGID_48_);}
	.st46{fill:url(#SVGID_49_);}
	.st47{fill:url(#SVGID_50_);}
	.st48{fill:url(#SVGID_51_);}
	.st49{fill:url(#SVGID_52_);}
	.st50{fill:url(#SVGID_53_);}
	.st51{fill:#231F20;}
	.st52{fill:#0D2E4E;}
	.st53{fill:url(#SVGID_54_);}
	.st54{fill:#F9C510;}
	.st55{fill:none;stroke:#F9C510;stroke-width:5;stroke-miterlimit:10;}
	.st56{display:none;fill:#231F20;}
	.st57{display:inline;fill:none;stroke:#FFFFFF;stroke-width:3;stroke-miterlimit:10;}
	.st58{display:none;fill:none;stroke:#231F20;stroke-width:8;stroke-miterlimit:10;}
	.st59{display:none;fill:#FFFFFF;}
	.st60{display:inline;fill:none;stroke:#FFFFFF;stroke-width:5;stroke-miterlimit:10;}
	.st61{fill:none;stroke:#FFFFFF;stroke-width:5;stroke-miterlimit:10;}
	.st62{display:inline;fill:#0D2E4E;}
	.st63{fill:url(#SVGID_55_);}
</style>
<g>
	<g>
		<g>
			<g>
				<g>
					<g>
						<g>
							<g>
								<g>
									<g>
										<g>
											<path d="M480.69,533.08H393.6c-7.6,0-13.75,6.16-13.76,13.76v141.09c0,7.6,6.16,13.75,13.76,13.76h87.09
												c7.6,0,13.75-6.16,13.76-13.76V546.84C494.44,539.24,488.29,533.08,480.69,533.08z M485.98,687.92
												c0,1.47-0.59,2.77-1.55,3.74c-0.97,0.96-2.27,1.55-3.74,1.55H393.6c-1.47,0-2.77-0.59-3.74-1.55
												c-0.96-0.97-1.55-2.27-1.55-3.74V546.84c0-1.47,0.59-2.77,1.55-3.74c0.97-0.96,2.27-1.55,3.74-1.55h87.09
												c1.47,0,2.77,0.59,3.74,1.55c0.96,0.97,1.55,2.27,1.55,3.74V687.92z"/>
											<path d="M461.28,537.92H413v-16.47c0-1.86,1.5-3.36,3.36-3.36h41.56c1.86,0,3.36,1.5,3.36,3.36V537.92z"/>
											<g>
												<path d="M478.04,549.49c-0.53-0.53-1.26-0.83-2-0.83h-77.78c-0.75,0-1.48,0.3-2,0.83c-0.53,0.53-0.83,1.26-0.83,2.01
													v131.78c0,0.75,0.3,1.48,0.83,2c0.53,0.53,1.26,0.83,2,0.83h77.78c0.75,0,1.48-0.3,2-0.83c0.53-0.53,0.83-1.26,0.83-2
													V551.49C478.87,550.74,478.57,550.01,478.04,549.49z M421.93,671.68l12.48-48.11h-23.96l36.22-54.32l6.33-9.5
													l-10.25,45.54h25.06L421.93,671.68z"/>
											</g>
										</g>
										<g>
											<g>
												<polygon points="872.88,560.35 810.73,560.35 810.73,692 784.84,692 784.84,560.35 583.34,560.35 583.34,692 
													502.52,692 502.52,666.12 557.46,666.12 557.46,527.13 437.13,416.83 316.84,527.13 316.84,666.12 371.75,666.12 
													371.75,692 290.96,692 290.96,550.94 252.58,550.94 437.13,381.73 603.72,534.47 843.89,534.47 												"/>
											</g>
										</g>
									</g>
								</g>
							</g>
						</g>
						<polygon points="523.99,430.26 565.91,467.66 572.68,467.66 531.37,430.26 						"/>
						<polygon points="553.39,420.56 510.52,381.75 494.78,381.75 537.65,420.56 						"/>
						<polygon points="469.6,381.75 513.11,420.56 520.65,420.56 477.78,381.75 						"/>
						<polygon points="584.03,477.36 626.9,516.17 642.64,516.17 599.77,477.36 						"/>
						<polygon points="573.09,420.56 529.58,381.75 527.53,381.75 570.39,420.56 						"/>
						<polygon points="494.15,381.75 478.41,381.75 521.28,420.56 537.02,420.56 						"/>
						<polygon points="576.79,477.36 620.3,516.17 626.27,516.17 583.4,477.36 						"/>
						<polygon points="547.74,430.26 532,430.26 573.31,467.66 589.05,467.66 						"/>
						<polygon points="625.89,467.66 583.97,430.26 581.12,430.26 622.42,467.66 						"/>
						<polygon points="621.79,467.66 580.49,430.26 564.75,430.26 606.05,467.66 						"/>
						<polygon points="605.42,467.66 564.12,430.26 548.37,430.26 589.68,467.66 						"/>
						<polygon points="569.76,420.56 526.89,381.75 511.15,381.75 554.02,420.56 						"/>
						<polygon points="641.63,420.56 598.12,381.75 596.41,381.75 639.28,420.56 						"/>
						<polygon points="706.43,420.56 663.56,381.75 649.89,381.75 692.76,420.56 						"/>
						<polygon points="663.64,420.56 620.77,381.75 612.71,381.75 656.21,420.56 						"/>
						<polygon points="638.69,420.56 595.82,381.75 582.15,381.75 625.02,420.56 						"/>
						<polygon points="692.17,420.56 649.3,381.75 635.62,381.75 678.49,420.56 						"/>
						<polygon points="716.19,420.56 672.68,381.75 664.15,381.75 707.02,420.56 						"/>
						<polygon points="635.74,430.26 677.04,467.66 690.72,467.66 649.41,430.26 						"/>
						<polygon points="610.16,420.56 567.29,381.75 553.61,381.75 596.48,420.56 						"/>
						<polygon points="650,430.26 691.31,467.66 694.43,467.66 652.51,430.26 						"/>
						<polygon points="624.43,420.56 581.56,381.75 567.88,381.75 610.75,420.56 						"/>
						<polygon points="595.9,420.56 553.03,381.75 544.17,381.75 587.67,420.56 						"/>
						<polygon points="744.78,467.66 758.46,467.66 717.15,430.26 703.48,430.26 						"/>
						<polygon points="677.9,420.56 635.03,381.75 621.35,381.75 664.22,420.56 						"/>
						<polygon points="702.03,477.36 744.9,516.17 748.82,516.17 705.31,477.36 						"/>
						<polygon points="719.89,477.36 763.4,516.17 769.25,516.17 726.38,477.36 						"/>
						<polygon points="673.5,477.36 716.37,516.17 730.05,516.17 687.18,477.36 						"/>
						<polygon points="687.76,477.36 730.63,516.17 744.31,516.17 701.44,477.36 						"/>
						<polygon points="607.21,430.26 648.51,467.66 662.19,467.66 620.88,430.26 						"/>
						<polygon points="598.55,430.26 640.47,467.66 647.92,467.66 606.62,430.26 						"/>
						<polygon points="689.21,430.26 730.52,467.66 744.2,467.66 702.89,430.26 						"/>
						<polygon points="768.99,467.66 727.07,430.26 717.74,430.26 759.05,467.66 						"/>
						<polygon points="779.87,477.36 769.77,477.36 812.64,516.17 823.38,516.17 						"/>
						<polygon points="726.97,477.36 769.84,516.17 783.52,516.17 740.65,477.36 						"/>
						<polygon points="667.09,430.26 709.01,467.66 715.66,467.66 674.36,430.26 						"/>
						<polygon points="674.95,430.26 716.25,467.66 729.93,467.66 688.62,430.26 						"/>
						<polygon points="741.24,477.36 784.11,516.17 797.79,516.17 754.92,477.36 						"/>
						<polygon points="755.51,477.36 798.37,516.17 812.05,516.17 769.18,477.36 						"/>
						<polygon points="633.14,477.36 676.01,516.17 680.28,516.17 636.77,477.36 						"/>
						<polygon points="659.23,477.36 702.1,516.17 715.78,516.17 672.91,477.36 						"/>
						<polygon points="651.35,477.36 694.86,516.17 701.51,516.17 658.65,477.36 						"/>
						<polygon points="621.47,430.26 662.78,467.66 676.46,467.66 635.15,430.26 						"/>
						<polygon points="600.4,477.36 643.27,516.17 659.01,516.17 616.14,477.36 						"/>
						<polygon points="616.77,477.36 659.64,516.17 675.38,516.17 632.51,477.36 						"/>
					</g>
				</g>
			</g>
		</g>
		<g>
			<path d="M347.25,329.64c-45.55,0-82.47,36.92-82.47,82.47c0,28.96,14.91,54.42,37.5,69.11l117.74-107.93
				C406.14,347.3,378.77,329.64,347.25,329.64z"/>
			<rect x="339.16" y="280.49" width="16.18" height="39.4"/>
			<rect x="215.64" y="404.02" width="39.4" height="16.18"/>
			<rect x="406.69" y="324.88" transform="matrix(0.7071 -0.7071 0.7071 0.7071 -110.5588 399.0342)" width="39.4" height="16.18"/>
			<rect x="248.42" y="483.16" transform="matrix(0.7071 -0.7071 0.7071 0.7071 -268.8348 333.465)" width="39.4" height="16.18"/>
			<rect x="260.03" y="313.27" transform="matrix(0.7071 -0.7071 0.7071 0.7071 -156.9161 287.0993)" width="16.18" height="39.4"/>
		</g>
	</g>
	<g>
		<path d="M319.39,765.45H349l-6.63,33.15h-13.49l-2.17-7.31h-0.46c-1.98,2.29-4.33,4.23-7.03,5.83c-2.71,1.6-6.23,2.4-10.57,2.4
			c-3.35,0-6.57-0.55-9.66-1.66c-3.09-1.1-5.83-2.86-8.23-5.26c-2.4-2.4-4.33-5.54-5.77-9.43c-1.45-3.89-2.17-8.57-2.17-14.06
			c0-5.94,0.91-11.58,2.74-16.92c1.83-5.33,4.57-10.04,8.23-14.12c3.66-4.08,8.23-7.29,13.72-9.66c5.49-2.36,11.89-3.54,19.2-3.54
			c5.64,0,10.55,0.65,14.74,1.94c4.19,1.3,8.15,2.74,11.89,4.34L349,753.33h-19.32c0.07-0.84,0.19-1.83,0.34-2.97
			c0.15-1.14,0.27-2.34,0.34-3.6c0.08-1.26,0.15-2.49,0.23-3.71c0.08-1.22,0.11-2.29,0.11-3.2c0-0.61-0.04-1.31-0.11-2.11
			c-0.08-0.8-0.27-1.58-0.57-2.34c-0.31-0.76-0.76-1.39-1.37-1.89c-0.61-0.49-1.49-0.74-2.63-0.74c-1.98,0-3.79,0.82-5.43,2.46
			c-1.64,1.64-3.11,3.81-4.4,6.51c-1.3,2.71-2.42,5.77-3.37,9.2c-0.95,3.43-1.75,6.92-2.4,10.46c-0.65,3.54-1.14,7.01-1.49,10.4
			c-0.34,3.39-0.51,6.34-0.51,8.86c0,0.76,0.04,1.71,0.11,2.86c0.08,1.14,0.32,2.27,0.74,3.37c0.42,1.11,1.03,2.06,1.83,2.86
			c0.8,0.8,1.96,1.2,3.49,1.2c2.51,0,4.95-1.37,7.31-4.11c2.36-2.74,4.15-7.31,5.37-13.72h-9.6L319.39,765.45z"/>
		<path d="M423.4,743.27c0,4.5-1.26,8.65-3.77,12.46c-2.51,3.81-6.67,6.71-12.46,8.69l13.26,34.18h-25.49l-10.06-31.66h-1.26
			l-6.74,31.66H352.2l15.43-72.58h30.06c3.5,0,6.82,0.21,9.94,0.63c3.12,0.42,5.85,1.26,8.17,2.51c2.32,1.26,4.17,3.01,5.54,5.26
			C422.72,736.66,423.4,739.62,423.4,743.27z M390.49,759.62c1.98,0,3.68-0.67,5.09-2c1.41-1.33,2.55-2.95,3.43-4.86
			c0.88-1.9,1.5-3.94,1.89-6.11c0.38-2.17,0.57-4.06,0.57-5.66c0-1.98-0.34-3.67-1.03-5.09c-0.69-1.41-2.17-2.11-4.46-2.11h-5.14
			l-5.71,25.83H390.49z"/>
		<path d="M449.23,798.59h-24.69l15.43-72.58h24.8L449.23,798.59z"/>
		<path d="M461.8,798.59l15.43-72.58h30.75c4.72,0,8.86,0.48,12.4,1.43c3.54,0.95,6.48,2.53,8.8,4.74c2.32,2.21,4.08,5.11,5.26,8.69
			c1.18,3.58,1.77,7.96,1.77,13.14c0,5.56-0.71,11.01-2.11,16.34c-1.41,5.33-3.75,10.1-7.03,14.29c-3.28,4.19-7.56,7.56-12.86,10.12
			c-5.3,2.55-11.83,3.83-19.6,3.83H461.8z M493.12,790.59c2.51,0,4.74-1.05,6.69-3.14c1.94-2.1,3.62-4.76,5.03-8
			c1.41-3.24,2.59-6.82,3.54-10.74c0.95-3.92,1.71-7.72,2.29-11.37c0.57-3.66,0.99-6.93,1.26-9.83c0.27-2.89,0.4-4.95,0.4-6.17
			c0-2.36-0.48-4.21-1.43-5.54c-0.95-1.33-2.61-2-4.97-2h-5.49l-12.23,56.81H493.12z"/>
		<path d="M559.94,788.19l37.6-53.49h-28.8l1.71-8.69h56.46l-1.03,9.71l-37.26,54.18h30.06l-1.6,8.69h-59.21L559.94,788.19z"/>
		<path d="M638.92,726.02h48.12l-1.83,8.69h-23.32l-4.8,22.06h19.54l-1.83,8.57h-19.54L650,789.79h23.32l-1.71,8.8h-48.12
			L638.92,726.02z"/>
		<path d="M752.18,743.27c0,4.5-1.26,8.65-3.77,12.46c-2.51,3.81-6.67,6.71-12.46,8.69l13.26,34.18h-25.49l-10.06-31.66h-1.26
			l-6.74,31.66h-24.69l15.43-72.58h30.06c3.5,0,6.82,0.21,9.94,0.63c3.12,0.42,5.85,1.26,8.17,2.51c2.32,1.26,4.17,3.01,5.54,5.26
			C751.5,736.66,752.18,739.62,752.18,743.27z M719.27,759.62c1.98,0,3.68-0.67,5.09-2c1.41-1.33,2.55-2.95,3.43-4.86
			c0.88-1.9,1.5-3.94,1.89-6.11c0.38-2.17,0.57-4.06,0.57-5.66c0-1.98-0.34-3.67-1.03-5.09c-0.69-1.41-2.17-2.11-4.46-2.11h-5.14
			l-5.71,25.83H719.27z"/>
		<path d="M799.05,724.87c6.55,0,11.87,0.84,15.94,2.52c4.08,1.68,7.29,4.27,9.66,7.77c1.52,2.36,2.7,5.03,3.54,8
			c0.84,2.97,1.26,6.4,1.26,10.29c0,3.35-0.31,6.71-0.91,10.06c-0.61,3.35-1.47,6.57-2.57,9.66c-1.11,3.09-2.44,5.98-4,8.69
			c-1.56,2.71-3.3,5.09-5.2,7.14c-3.58,3.89-7.72,6.61-12.4,8.17c-4.69,1.56-10.46,2.34-17.32,2.34c-6.63,0-11.96-0.69-16-2.06
			c-4.04-1.37-7.24-3.58-9.6-6.63c-1.68-2.13-2.99-4.84-3.94-8.12c-0.95-3.28-1.43-7.39-1.43-12.34c0-8.46,1.5-16.02,4.52-22.69
			c3.01-6.67,7.29-11.94,12.86-15.83c3.35-2.36,7.09-4.11,11.2-5.26C788.76,725.44,793.56,724.87,799.05,724.87z M786.13,791.51
			c1.75,0,3.41-0.78,4.97-2.34c1.56-1.56,3.01-3.66,4.34-6.29c1.33-2.63,2.55-5.62,3.66-8.97c1.1-3.35,2.04-6.82,2.8-10.4
			c0.76-3.58,1.35-7.14,1.77-10.69c0.42-3.54,0.63-6.76,0.63-9.66c0-3.96-0.4-6.69-1.2-8.17c-0.8-1.49-1.96-2.23-3.49-2.23
			c-1.75,0-3.43,0.76-5.03,2.29c-1.6,1.53-3.11,3.56-4.52,6.11c-1.41,2.55-2.67,5.49-3.77,8.8c-1.11,3.31-2.06,6.73-2.86,10.23
			c-0.8,3.51-1.41,6.97-1.83,10.4c-0.42,3.43-0.63,6.59-0.63,9.49c0,4.34,0.47,7.33,1.43,8.97
			C783.37,790.69,784.61,791.51,786.13,791.51z"/>
	</g>
</g>
</svg>
